<svg width="144" height="140" viewBox="0 0 144 140" fill="none" xmlns="http://www.w3.org/2000/svg">
<rect width="144" height="139.765" rx="11" fill="url(#paint0_linear_74_136)"/>
<path d="M56.6 81V77.8H62.36V81H56.6ZM32.92 79.4V56.104L36.12 55.4V79.4H32.92ZM27.8 81L29.72 77.8H38.04V81H27.8ZM34.36 81V77.8H55.32C55.3413 76.904 55.16 76.1467 54.776 75.528C54.4133 74.9093 53.6347 74.6 52.44 74.6H34.36V71.4H52.44C53.7627 71.4 54.8187 71.5813 55.608 71.944C56.4187 72.3067 57.0267 72.7973 57.432 73.416C57.8587 74.0347 58.1467 74.728 58.296 75.496C58.4453 76.264 58.52 77.064 58.52 77.896C58.52 78.7067 58.52 79.496 58.52 80.264C58.52 80.52 58.4133 80.7013 58.2 80.808C57.9867 80.9147 57.7733 80.9787 57.56 81C57.3467 81 57.24 81 57.24 81H34.36ZM67.142 87.856C66.63 87.856 66.1927 87.6747 65.83 87.312C65.4673 86.9493 65.286 86.512 65.286 86C65.286 85.488 65.4673 85.0507 65.83 84.688C66.1927 84.3253 66.63 84.144 67.142 84.144C67.654 84.144 68.0913 84.3253 68.454 84.688C68.8167 85.0507 68.998 85.488 68.998 86C68.998 86.512 68.8167 86.9493 68.454 87.312C68.0913 87.6747 67.654 87.856 67.142 87.856ZM61.606 87.856C61.094 87.856 60.6567 87.6747 60.294 87.312C59.9313 86.9493 59.75 86.512 59.75 86C59.75 85.488 59.9313 85.0507 60.294 84.688C60.6567 84.3253 61.094 84.144 61.606 84.144C62.118 84.144 62.5553 84.3253 62.918 84.688C63.2807 85.0507 63.462 85.488 63.462 86C63.462 86.512 63.2807 86.9493 62.918 87.312C62.5553 87.6747 62.118 87.856 61.606 87.856ZM64.9188 81V77.8H71.9588V81H64.9188ZM64.9188 74.28V69.864L68.1188 69.16V74.28H64.9188ZM61.0787 81V77.8H64.9188V72.104L68.1188 71.4V80.264C68.1188 80.52 68.0121 80.7013 67.7988 80.808C67.5854 80.9147 67.3721 80.9787 67.1588 81C66.9454 81 66.8388 81 66.8388 81H61.0787ZM70.6725 81V77.8H74.5125V72.104L77.7125 71.4V77.8H80.9125V72.104L84.1125 71.4V77.8H87.3125V72.104L90.5125 71.4V80.264C90.5125 80.52 90.4058 80.7013 90.1925 80.808C89.9792 80.9147 89.7658 80.9787 89.5525 81C89.3392 81 89.2325 81 89.2325 81H70.6725ZM96.8485 81L98.4485 77.8H104.753V81H96.8485ZM101.681 76.2L96.9125 71.4C97.1898 71.4 97.5525 71.4 98.0005 71.4C98.4485 71.4 98.9072 71.368 99.3765 71.304C99.8672 71.2187 100.315 71.0693 100.72 70.856C101.147 70.6427 101.467 70.3333 101.681 69.928V76.2ZM96.9125 81C96.0378 81 95.2378 80.7867 94.5125 80.36C93.7872 79.9333 93.2005 79.3573 92.7525 78.632C92.3258 77.8853 92.1125 77.0747 92.1125 76.2C92.1125 75.304 92.3258 74.4933 92.7525 73.768C93.2005 73.0427 93.7872 72.4667 94.5125 72.04C95.2378 71.6133 96.0378 71.4 96.9125 71.4C97.7872 71.4 98.5872 71.6133 99.3125 72.04C100.038 72.4667 100.614 73.0427 101.041 73.768C101.467 74.4933 101.681 75.304 101.681 76.2C101.681 77.0747 101.467 77.8853 101.041 78.632C100.614 79.3573 100.038 79.9333 99.3125 80.36C98.5872 80.7867 97.7872 81 96.9125 81ZM96.9125 77.8C97.3605 77.8 97.7338 77.6507 98.0325 77.352C98.3525 77.032 98.5125 76.648 98.5125 76.2C98.5125 75.752 98.3525 75.3787 98.0325 75.08C97.7338 74.76 97.3605 74.6 96.9125 74.6C96.4645 74.6 96.0805 74.76 95.7605 75.08C95.4618 75.3787 95.3125 75.752 95.3125 76.2C95.3125 76.648 95.4618 77.032 95.7605 77.352C96.0805 77.6507 96.4645 77.8 96.9125 77.8ZM92.5605 85.224C93.7765 85.544 94.7685 85.6827 95.5365 85.64C96.3258 85.5973 96.9338 85.4267 97.3605 85.128C97.7872 84.8293 98.0752 84.456 98.2245 84.008C98.3952 83.56 98.4805 83.112 98.4805 82.664V76.904L101.681 76.2V82.344C101.681 83.4747 101.435 84.392 100.945 85.096C100.475 85.8213 99.8565 86.344 99.0885 86.664C98.3205 87.0053 97.5098 87.1653 96.6565 87.144C95.8245 87.1227 95.0352 86.9413 94.2885 86.6C93.5632 86.28 92.9872 85.8213 92.5605 85.224ZM103.485 81V77.8H107.325V56.104L110.525 55.4V80.264C110.525 80.52 110.418 80.7013 110.205 80.808C109.992 80.9147 109.778 80.9787 109.565 81C109.352 81 109.245 81 109.245 81H103.485ZM118.353 79.144C118.225 79.6133 117.926 80.0187 117.457 80.36C117.009 80.68 116.475 80.904 115.857 81.032C115.259 81.16 114.673 81.16 114.097 81.032C113.542 80.904 113.073 80.6373 112.689 80.232C112.305 79.8053 112.113 79.208 112.113 78.44V56.104L115.312 55.4V78.44C115.312 78.824 115.43 79.1013 115.665 79.272C115.899 79.4213 116.187 79.5067 116.529 79.528C116.87 79.528 117.211 79.4853 117.553 79.4C117.894 79.3147 118.161 79.2293 118.353 79.144Z" fill="url(#paint1_linear_74_136)"/>
<defs>
<linearGradient id="paint0_linear_74_136" x1="72" y1="0" x2="72" y2="139.765" gradientUnits="userSpaceOnUse">
<stop stop-color="#26364D"/>
<stop offset="0.692708" stop-color="#212F42"/>
<stop offset="0.979167" stop-color="#040F1A"/>
</linearGradient>
<linearGradient id="paint1_linear_74_136" x1="73" y1="31.5" x2="73" y2="94" gradientUnits="userSpaceOnUse">
<stop stop-color="white"/>
<stop offset="0.375" stop-color="white"/>
<stop offset="0.723958" stop-color="#FFA800"/>
</linearGradient>
</defs>
</svg>
